<svg xmlns="http://www.w3.org/2000/svg" viewBox="0 0 64 64" role="img" aria-label="AdhikarMitra emblem: letter A over stylized globe">
  <defs>
    <linearGradient id="grad" x1="0%" y1="0%" x2="100%" y2="100%">
      <stop offset="0%" stop-color="#0e639c"/>
      <stop offset="100%" stop-color="#2fa4d9"/>
    </linearGradient>
  </defs>
  <circle cx="32" cy="32" r="30" fill="url(#grad)" stroke="#0a4d78" stroke-width="2"/>
  <!-- Globe latitude lines -->
  <ellipse cx="32" cy="32" rx="26" ry="12" fill="none" stroke="rgba(255,255,255,0.55)" stroke-width="2"/>
  <ellipse cx="32" cy="32" rx="22" ry="10" fill="none" stroke="rgba(255,255,255,0.35)" stroke-width="1.5"/>
  <ellipse cx="32" cy="32" rx="14" ry="6" fill="none" stroke="rgba(255,255,255,0.35)" stroke-width="1.25"/>
  <!-- Globe longitude lines -->
  <path d="M32 2 A30 30 0 0 1 46 32 A30 30 0 0 1 32 62 A30 30 0 0 1 18 32 A30 30 0 0 1 32 2 Z" fill="none" stroke="rgba(255,255,255,0.55)" stroke-width="2"/>
  <path d="M32 6 A26 26 0 0 1 42 32 A26 26 0 0 1 32 58 A26 26 0 0 1 22 32 A26 26 0 0 1 32 6 Z" fill="none" stroke="rgba(255,255,255,0.35)" stroke-width="1.4"/>
  <!-- Letter A -->
  <path d="M32 14 L18 50 H24 L28 40 H36 L40 50 H46 L32 14 Z M30.9 34 L32 30.8 33.1 34 H30.9 Z" fill="#ffffff" stroke="#ffffff" stroke-width="0.8" stroke-linejoin="round"/>
</svg>
